<?xml version="1.0" standalone="no"?>
<!DOCTYPE svg PUBLIC "-//W3C//DTD SVG 20010904//EN"
 "http://www.w3.org/TR/2001/REC-SVG-20010904/DTD/svg10.dtd">
<svg version="1.0" xmlns="http://www.w3.org/2000/svg"
 width="188.000000pt" height="200.000000pt" viewBox="0 0 188.000000 200.000000"
 preserveAspectRatio="xMidYMid meet">

<g transform="translate(0.000000,200.000000) scale(0.100000,-0.100000)"
fill="#000000" stroke="none">
<path d="M0 1000 l0 -1000 940 0 940 0 0 1000 0 1000 -940 0 -940 0 0 -1000z
m1065 830 c55 -8 189 -44 202 -55 5 -4 -29 -95 -35 -95 -4 0 -34 9 -67 19 -33
10 -86 22 -118 26 l-58 7 3 -53 3 -53 75 -14 c109 -20 217 -79 307 -170 l74
-73 39 22 c22 13 40 29 40 36 0 8 -36 50 -80 94 l-79 81 31 39 31 38 38 -30
c132 -104 257 -321 276 -480 5 -45 5 -46 -27 -53 -60 -12 -67 -9 -75 32 -6 35
-53 183 -60 190 -4 4 -84 -38 -89 -47 -3 -4 7 -38 21 -77 23 -60 27 -84 27
-184 -1 -109 -11 -162 -48 -250 -5 -12 6 -22 40 -38 26 -13 47 -22 48 -20 17
25 39 89 53 151 l18 77 45 -6 c25 -4 48 -8 52 -10 8 -5 -16 -113 -43 -187 -42
-120 -160 -284 -249 -347 l-28 -20 -30 38 -31 38 80 82 c43 45 79 88 79 95 0
7 -19 24 -42 37 -40 22 -41 23 -55 4 -28 -40 -110 -117 -158 -148 -69 -45
-138 -72 -218 -87 l-67 -12 0 -49 0 -48 38 1 c32 0 114 19 187 43 17 6 23 1
34 -31 8 -21 16 -43 18 -50 3 -7 -28 -22 -84 -40 -80 -25 -101 -27 -233 -27
-125 1 -156 5 -228 27 -46 14 -85 27 -88 29 -6 7 27 98 35 98 4 0 34 -9 67
-20 32 -12 85 -23 117 -27 l57 -6 0 50 0 50 -64 11 c-132 25 -238 84 -336 188
l-60 65 -40 -22 c-22 -13 -40 -29 -40 -37 0 -7 36 -50 79 -95 l80 -80 -30 -39
c-38 -47 -41 -46 -142 61 -58 62 -87 104 -126 183 -48 97 -96 255 -82 269 3 4
27 10 52 13 l47 7 7 -38 c10 -58 57 -193 66 -193 4 0 25 10 46 22 21 12 39 22
40 23 1 0 -10 35 -24 76 -24 64 -27 89 -27 189 1 99 5 125 27 184 14 39 24 73
21 77 -6 11 -86 51 -91 45 -9 -8 -53 -149 -59 -187 -7 -42 -11 -43 -75 -33
l-36 6 12 67 c32 164 149 361 272 459 l40 31 31 -39 32 -39 -80 -80 c-44 -45
-80 -88 -80 -96 0 -8 18 -24 41 -35 l41 -21 61 64 c98 102 198 157 327 181
l65 12 3 52 c3 51 3 52 -26 52 -24 0 -113 -20 -197 -45 -17 -5 -23 2 -38 41
-9 26 -16 48 -15 49 2 1 34 12 72 25 117 38 233 48 361 30z"/>
<path d="M865 1530 c-237 -38 -425 -260 -425 -502 l0 -38 510 0 510 0 0 45 c0
156 -91 323 -227 417 -95 65 -249 98 -368 78z m-74 -203 c112 -74 75 -237 -58
-253 -73 -9 -153 60 -153 132 0 113 120 182 211 121z m469 -3 c63 -53 77 -125
37 -185 -44 -66 -130 -86 -192 -45 -37 24 -68 92 -61 134 16 104 140 159 216
96z m-278 -201 c34 -31 16 -73 -32 -73 -47 0 -65 37 -33 72 20 22 41 23 65 1z"/>
<path d="M460 887 c0 -21 66 -150 94 -182 l25 -30 1 113 0 112 -60 0 c-42 0
-60 -4 -60 -13z"/>
<path d="M672 748 l3 -152 40 -23 c22 -12 46 -23 53 -23 9 0 12 42 12 175 l0
175 -55 0 -56 0 3 -152z"/>
<path d="M870 710 l0 -190 80 0 80 0 0 190 0 190 -80 0 -80 0 0 -190z"/>
<path d="M1120 725 c0 -133 3 -175 13 -175 6 0 30 11 52 23 l40 23 3 152 3
152 -56 0 -55 0 0 -175z"/>
<path d="M1320 788 l1 -113 25 30 c28 32 94 161 94 182 0 9 -18 13 -60 13
l-60 0 0 -112z"/>
</g>
</svg>
